<svg xmlns="http://www.w3.org/2000/svg" width="269" height="144.107" viewBox="0 0 269 144.107">
  <path id="key" d="M243.179,46.429H127.893L110.6,23.371A38.429,38.429,0,0,0,79.857,8H41.429A38.428,38.428,0,0,0,3,46.429v67.249a38.428,38.428,0,0,0,38.429,38.429H79.857A38.429,38.429,0,0,0,110.6,136.736l17.293-23.057h14.069l19.556-19.556,19.214,19.214,19.214-19.214,19.214,19.214,19.214-19.214,13.1,13.1L272,91.263V68.845ZM60.643,94.464a9.607,9.607,0,0,1-9.607,9.607H41.429a9.607,9.607,0,0,1-9.607-9.607V65.643a9.607,9.607,0,0,1,9.607-9.607h9.607a9.607,9.607,0,0,1,9.607,9.607Z" transform="translate(-3 -8)"/>
</svg>
