<svg xmlns="http://www.w3.org/2000/svg" width="270.805" height="239.558" viewBox="0 0 270.805 239.558">
  <path id="book-open" d="M242.558,5H180.065A52.03,52.03,0,0,0,138.4,25.863,52.031,52.031,0,0,0,96.74,5H34.247A31.282,31.282,0,0,0,3,36.247V192.48a31.247,31.247,0,0,0,31.247,31.247H96.74a13.039,13.039,0,0,1,12.025,8.046,20.832,20.832,0,0,0,19.184,12.786h20.9a20.835,20.835,0,0,0,19.19-12.8,13.018,13.018,0,0,1,12.01-8.035h62.5A31.247,31.247,0,0,0,273.8,192.48V36.247A31.282,31.282,0,0,0,242.558,5ZM127.987,202.9h-1.912A31.156,31.156,0,0,0,96.74,182.065H34.247a10.416,10.416,0,0,1-10.416-10.416V36.247A10.416,10.416,0,0,1,34.247,25.831H96.74a31.247,31.247,0,0,1,31.247,31.247Zm124.987-31.252a10.416,10.416,0,0,1-10.416,10.416H180.065A31.156,31.156,0,0,0,150.73,202.9h-1.912V57.078a31.247,31.247,0,0,1,31.247-31.247h62.493a10.416,10.416,0,0,1,10.416,10.416Z" transform="translate(-3 -5)"/>
</svg>
