<svg xmlns="http://www.w3.org/2000/svg" width="270.274" height="207.704" viewBox="0 0 270.274 207.704">
  <g id="Group_5" data-name="Group 5" transform="translate(-121.322 -152)">
    <g id="Group_2" data-name="Group 2">
      <path id="mobile-phone-vibrations" d="M321.919,173.947a18.109,18.109,0,0,1,0,22.853L286.063,240a15.664,15.664,0,0,1-23.015,1.563,18.043,18.043,0,0,1-1.473-24.415l26.382-31.771-26.381-31.78a18.1,18.1,0,0,1,0-22.844l26.4-31.862-26.4-31.855a18.037,18.037,0,0,1,1.481-24.407A15.659,15.659,0,0,1,286.064,44.2L321.92,87.47a18.085,18.085,0,0,1,0,22.836l-26.382,31.855Zm-201.81-20.354-26.4,31.863,26.4,31.855a18.037,18.037,0,0,1-1.481,24.407,15.659,15.659,0,0,1-23.007-1.571L59.765,196.873a18.085,18.085,0,0,1,0-22.836l26.382-31.855L59.766,110.4a18.109,18.109,0,0,1,0-22.853l35.855-43.2a15.664,15.664,0,0,1,23.015-1.563A18.043,18.043,0,0,1,120.11,67.2L93.727,98.969l26.382,31.78a18.1,18.1,0,0,1,0,22.844Z" transform="translate(65.617 113.681)"/>
    </g>
    <path id="nearby-alt" d="M116.2,128.832c-7.4-8.2-43.275-45.743-43.275-77.4a47.436,47.436,0,0,1,94.872,0c0,31.653-35.872,69.2-43.275,77.4a6.034,6.034,0,0,1-8.322,0Zm4.161-50.765A26.631,26.631,0,1,0,93.731,51.436,26.812,26.812,0,0,0,120.362,78.067Z" transform="translate(136.074 189)"/>
  </g>
</svg>
